<svg width="139" height="78" xmlns="http://www.w3.org/2000/svg" xmlns:xlink="http://www.w3.org/1999/xlink" overflow="hidden"><defs><clipPath id="clip0"><rect x="283" y="57" width="139" height="78"/></clipPath></defs><g clip-path="url(#clip0)" transform="translate(-283 -57)"><path d="M46.9661 17.8967 54.795 17.8967 54.795 57.0339 46.9661 57.0339Z" fill="#FFFFFF" transform="matrix(1.0024 0 0 1 283 57)"/><path d="M60.1033 17.8967 67.9322 17.8967 67.9322 57.0339 60.1033 57.0339Z" fill="#FFFFFF" transform="matrix(1.0024 0 0 1 283 57)"/><path d="M90.0178 45.7961C90.0178 48.9233 87.9522 50.7722 85.4894 50.7722L85.0417 50.7722C82.5789 50.7722 80.5133 48.9306 80.5133 45.7961L80.5133 29.0767 72.6844 29.0767 72.6844 45.4567C72.6844 53.56 77.9422 58.0378 84.5361 58.0378L85.9878 58.0378C92.5817 58.0378 97.8394 53.5672 97.8394 45.4567L97.8394 29.0767 90.0106 29.0767 90.0106 45.7961Z" fill="#FFFFFF" transform="matrix(1.0024 0 0 1 283 57)"/><path d="M115.007 28.0728 114.111 28.0728C107.517 28.0728 101.978 32.435 101.978 40.6539L101.978 57.0339 109.807 57.0339 109.807 40.7117C109.807 37.0789 112.096 35.4033 114.559 35.4033L114.783 35.4033C117.188 35.4033 119.419 36.9706 119.593 40.8272L119.651 41.9467 127.422 41.6144 127.422 40.9428C127.414 33.0994 121.882 28.0728 115.007 28.0728Z" fill="#FFFFFF" transform="matrix(1.0024 0 0 1 283 57)"/><path d="M26.6211 28.3472C18.0989 28.3472 11.3028 34.6956 11.3028 43.1094 11.3028 51.5739 17.875 57.6983 25.8917 57.6983 30.03 57.6983 33.215 56.4489 35.3672 54.3689L35.4756 57.0339 41.9394 57.0339 41.9394 43.0517 41.9394 43.0517C41.9033 34.6739 35.0711 28.3472 26.6211 28.3472ZM26.6789 50.6856C22.4467 50.6856 19.1606 47.4572 19.1606 43.1094 19.1606 38.7617 22.4467 35.5333 26.6789 35.5333 31.135 35.5333 34.4789 38.7111 34.4789 43.1094 34.4717 47.6233 31.135 50.6856 26.6789 50.6856Z" fill="#FFFFFF" transform="matrix(1.0024 0 0 1 283 57)"/></g></svg>